<?xml version="1.0" encoding="UTF-8"?>
<svg id="Layer_3" data-name="Layer 3" xmlns="http://www.w3.org/2000/svg" viewBox="0 0 450.9 114.45">
  <defs>
    <style>
      .cls-1 {
        fill: #fb0;
      }

      .cls-2 {
        fill: #002e45;
      }
    </style>
  </defs>
  <g id="Layer_1" data-name="Layer 1">
    <path class="cls-2" d="M254.02,106.51c-3.41,0-6.19-1.34-8.35-4.02-2.15-2.68-3.23-6.11-3.23-10.31s1.09-7.61,3.27-10.24c2.18-2.62,5-3.94,8.46-3.94s6.18,1.3,8.31,3.9c2.13,2.6,3.19,5.97,3.19,10.12,0,2.78-.5,5.28-1.5,7.48-1,2.2-2.38,3.92-4.13,5.16-1.76,1.23-3.77,1.85-6.02,1.85M252.29,114.38c2.94,0,5.56-.6,7.87-1.81,2.31-1.21,4.15-2.89,5.51-5.04v5.67h9.21v-41.73h-7.48l-.79,6.54c-1.37-2.41-3.35-4.32-5.95-5.71-2.6-1.39-5.5-2.09-8.7-2.09-3.68,0-6.96.93-9.84,2.8-2.89,1.86-5.15,4.45-6.77,7.76-1.63,3.31-2.44,7.09-2.44,11.34s.83,8.15,2.48,11.54c1.65,3.39,3.95,6.02,6.89,7.91,2.94,1.89,6.27,2.83,10,2.83M206.46,106.51c-3.41,0-6.19-1.34-8.35-4.02-2.15-2.68-3.23-6.11-3.23-10.31s1.09-7.61,3.27-10.24c2.18-2.62,5-3.94,8.47-3.94s6.18,1.3,8.31,3.9c2.13,2.6,3.19,5.97,3.19,10.12,0,2.78-.5,5.28-1.5,7.48-1,2.2-2.38,3.92-4.13,5.16-1.76,1.23-3.77,1.85-6.02,1.85M204.73,114.38c3.36,0,6.29-.76,8.78-2.28,2.49-1.52,4.34-3.62,5.55-6.3l.87,7.4h7.48v-59.06h-9.29v22.44c-1.47-1.99-3.4-3.56-5.79-4.69-2.39-1.13-5.03-1.69-7.91-1.69-3.67,0-6.96.93-9.84,2.8-2.89,1.86-5.14,4.45-6.77,7.76-1.63,3.31-2.44,7.09-2.44,11.34s.83,8.15,2.48,11.54c1.65,3.39,3.95,6.02,6.89,7.91,2.94,1.89,6.27,2.83,10,2.83M152.84,113.2v-25.28c.05-2.78,1.02-5.08,2.91-6.89,1.89-1.81,4.33-2.72,7.32-2.72,2.57,0,4.59.7,6.06,2.09,1.47,1.39,2.2,3.27,2.2,5.63v27.17h9.29v-27.64c0-4.67-1.34-8.4-4.02-11.18-2.68-2.78-6.25-4.17-10.71-4.17-3.04,0-5.83.68-8.35,2.05-2.52,1.37-4.44,3.15-5.75,5.35l-.79-6.14h-7.48v41.73h9.29ZM107.46,87.69c.73-2.99,2.07-5.34,4.02-7.05,1.94-1.71,4.28-2.56,7.01-2.56s4.92.84,6.73,2.52c1.81,1.68,3,4.04,3.58,7.09h-21.34ZM119.27,114.38c4.88,0,9-1.27,12.36-3.82,3.36-2.55,5.56-6.08,6.61-10.59h-9.06c-.68,2.1-1.89,3.71-3.62,4.84-1.73,1.13-3.81,1.69-6.22,1.69-3.52,0-6.37-1.11-8.54-3.35-2.18-2.23-3.43-5.21-3.74-8.94h31.34v-2.2c-.05-4.46-.92-8.33-2.6-11.61-1.68-3.28-4-5.8-6.97-7.56-2.97-1.76-6.42-2.64-10.36-2.64s-7.4.91-10.55,2.72c-3.15,1.81-5.63,4.41-7.44,7.79-1.81,3.39-2.72,7.31-2.72,11.77,0,4.2.91,7.97,2.72,11.3,1.81,3.33,4.34,5.93,7.6,7.8,3.25,1.86,6.98,2.8,11.18,2.8M75.2,114.38c5.51,0,10.03-1.57,13.54-4.72,3.52-3.15,5.56-7.43,6.14-12.83h-9.13c-.47,2.99-1.64,5.34-3.5,7.05-1.86,1.71-4.21,2.56-7.05,2.56-3.57,0-6.48-1.29-8.74-3.86-2.26-2.57-3.39-6.09-3.39-10.55s1.08-7.62,3.23-10.12c2.15-2.49,5.01-3.74,8.58-3.74,2.94,0,5.38.85,7.32,2.56,1.94,1.71,3.12,4,3.54,6.89h9.13c-.26-3.46-1.25-6.51-2.95-9.13-1.71-2.62-4.02-4.66-6.93-6.1-2.91-1.44-6.26-2.17-10.04-2.17-4.04,0-7.69.88-10.95,2.64-3.26,1.76-5.8,4.28-7.64,7.56-1.84,3.28-2.76,7.15-2.76,11.61s.87,8.07,2.6,11.46c1.73,3.39,4.23,6.05,7.48,7.99,3.25,1.94,7.09,2.91,11.5,2.91M35.83,90.57h-17.09l8.58-21.57,8.5,21.57ZM15.35,99.17h23.86l5.59,14.03h9.76l-22.6-56.77h-9.45L0,113.2h9.76l5.59-14.03Z"/>
    <path class="cls-1" d="M450.53,59.56c.09.15.04.35-.12.44l-.14.08c-8.05,4.65-18.34,1.89-22.98-6.16l-7.78-13.48h0l-9.97-17.26c-4.67-8.09-1.9-18.42,6.19-23.09l.07-.04c.15-.09.35-.04.44.12l9.61,16.64c3.25,5.63,2.98,12.33-.14,17.55,6.06-.11,12,2.99,15.24,8.61l9.59,16.6ZM413.88,40.8h-23.89c-.19,0-.34.16-.32.35.37,4.03,1.59,8.05,3.75,11.79,2.16,3.74,5.02,6.81,8.33,9.14.15.11.37.06.46-.1l11.95-20.69c.12-.21-.03-.48-.28-.48ZM450.75,32.45l-7-4.23c-.82-.51-2.31-1.41-4.04-1.53-3.84-.28-6.51,2.69-7.43,3.84-.16.19-.07.48.17.56,1.06.33,2.27.63,3.55,1.33,1.29.71,2.39,1.46,3.29,2.16.27.21.62.31.97.25,3.46-.59,6.92-1.19,10.39-1.78.3-.05.37-.44.11-.6Z"/>
    <g>
      <g>
        <path class="cls-2" d="M330.53,58.58c0-3.47,2.66-6.13,6.13-6.13s6.13,2.66,6.13,6.13-2.58,6.21-6.13,6.21-6.13-2.74-6.13-6.21ZM331.91,113.24v-42.73h9.51v42.73h-9.51Z"/>
        <path class="cls-2" d="M353.15,113.24v-34.67h-7.5v-8.06h7.5v-5.32c0-8.06,4.75-12.41,13.62-12.41h9.27v8.06h-8.63c-3.06,0-4.76,1.77-4.76,5v4.68h12.41v8.06h-12.41v34.67h-9.51Z"/>
        <path class="cls-2" d="M374.35,92.04c0-14.11,9.27-22.82,21.2-22.82s20.15,8.47,20.4,22.33v2.26h-32.09c.64,7.5,5.32,12.58,12.58,12.58,4.92,0,8.63-2.42,10.08-6.69h9.27c-2.18,9.19-9.35,14.75-19.43,14.75-13.06,0-22.01-9.35-22.01-22.41ZM406.12,87.12c-1.21-6.13-5-9.84-10.56-9.84s-9.84,3.71-11.29,9.84h21.85Z"/>
      </g>
      <path class="cls-2" d="M297.44,113.24v-56.43h9.67v47.73h20.72v8.71h-30.39Z"/>
    </g>
  </g>
</svg>